<?xml version="1.0" encoding="utf-8"?>
<!-- Generator: Adobe Illustrator 18.0.0, SVG Export Plug-In . SVG Version: 6.00 Build 0)  -->
<!DOCTYPE svg PUBLIC "-//W3C//DTD SVG 1.1//EN" "http://www.w3.org/Graphics/SVG/1.1/DTD/svg11.dtd">
<svg version="1.1" id="Layer_1" xmlns="http://www.w3.org/2000/svg" xmlns:xlink="http://www.w3.org/1999/xlink" x="0px" y="0px"
	 viewBox="1.4 832.5 1440 315.5" enable-background="new 1.4 832.5 1440 315.5" xml:space="preserve">
<g id="Stripes_2">
</g>
<g id="Stripes_1">
</g>
<g id="Graphic">
</g>
<g id="Logo">
	<g enable-background="new    ">
		<path fill="#4B607A" d="M458.4,991.8h-34.8v-84.2h32c23.4,0,42.4,18.9,42.4,42.2C498.1,972,480.5,991.8,458.4,991.8z M457.1,978.6
			c14.5,0,26.4-13.5,26.4-28.9c0-16-12.5-29-27.8-29H438v57.9H457.1z"/>
		<path fill="#4B607A" d="M510.9,910.2c0-4.7,3.7-8.4,8.4-8.4c4.5,0,8.2,3.7,8.2,8.4c0,4.5-3.7,8.2-8.2,8.2
			C514.6,918.4,510.9,914.7,510.9,910.2z M512.1,927h14.3v64.7h-14.3V927z"/>
		<path fill="#4B607A" d="M544.5,976.1c7.9,3.3,14.5,5.4,22.8,5.4c9.1,0,12.5-3.9,12.5-8c0-4.8-4.7-6.7-15.3-9
			c-14-3-24.2-7.6-24.2-19.6c0-11.2,9.9-19.1,24.5-19.1c9.8,0,17.9,2.3,25.1,5.1l-4.8,10.3c-6.3-2.5-13.9-4.2-20.5-4.2
			c-7.2,0-11.5,2.9-11.5,7.3s4.8,6.5,15.8,8.7c14.9,3,24,8,24,19.6c0,11.7-9,19.9-25.9,19.9c-11,0-18.6-1.8-27.7-6.1L544.5,976.1z"
			/>
		<path fill="#4B607A" d="M622.9,938.5v26.8c0,11.7,2.6,15.4,11,15.4c3.3,0,6-0.4,8.2-0.7v10.5c-1.1,0.4-5.7,2.1-14.3,2.1
			c-10.6,0-19.2-6.7-19.2-20.1v-34h-9.8V927h9.8v-25.3h14.3V927h19.5v11.5H622.9z"/>
		<path fill="#4B607A" d="M652.6,910.2c0-4.7,3.7-8.4,8.4-8.4c4.5,0,8.2,3.7,8.2,8.4c0,4.5-3.7,8.2-8.2,8.2
			C656.4,918.4,652.6,914.7,652.6,910.2z M653.8,927h14.3v64.7h-14.3V927z"/>
		<path fill="#4B607A" d="M745.6,955.4v36.3h-14.3v-36.3c0-11.3-6-17.1-15.9-17.1c-6.8,0-12.2,2.2-16.4,6v47.4h-14.3V927H699v4.9
			c5-3.9,11.6-6.1,18.8-6.1C736.1,925.8,745.6,934.9,745.6,955.4z"/>
		<path fill="#4B607A" d="M817.5,980c-5.9,7.8-14.8,12.5-24.7,12.5c-19.5,0-35.4-14.9-35.4-33.3c0-18.5,15.9-33.4,35.4-33.4
			c10.3,0,19.1,4.8,25,12.4l-9.3,8.4c-3.5-5-9.2-8.2-15.6-8.2c-11.8,0-21.4,9.3-21.4,20.9c0,11.5,9.6,20.8,21.4,20.8
			c6.3,0,12.1-3.2,15.6-8.4L817.5,980z"/>
		<path fill="#4B607A" d="M848.4,938.5v26.8c0,11.7,2.6,15.4,11,15.4c3.3,0,6-0.4,8.2-0.7v10.5c-1.1,0.4-5.7,2.1-14.3,2.1
			c-10.6,0-19.2-6.7-19.2-20.1v-34h-9.8V927h9.8v-25.3h14.3V927h19.5v11.5H848.4z"/>
		<path fill="#4B607A" d="M878.2,910.2c0-4.7,3.7-8.4,8.4-8.4c4.5,0,8.2,3.7,8.2,8.4c0,4.5-3.7,8.2-8.2,8.2
			C881.9,918.4,878.2,914.7,878.2,910.2z M879.4,927h14.3v64.7h-14.3V927z"/>
		<path fill="#4B607A" d="M973.7,927l-31.2,64.7h-6.9L904.3,927h15l19.7,41.4l19.6-41.4H973.7z"/>
		<path fill="#4B607A" d="M990.9,963.4c2,10.3,11.2,17.1,20.9,17.1c7.2,0,13.9-3.2,17.8-8.6l9.2,7.5c-6,8-16.5,13.1-29,13.1
			c-19.6,0-33.1-14.9-33.1-33.3c0-18.5,13.5-33.4,33.1-33.4c19.4,0,31.4,14.1,31.4,33.8c0,1.7-0.1,3.8-0.1,3.8H990.9z M991.2,953.4
			h36.3c-0.8-9-6-16.4-17.7-16.4C1000,937,992.8,944.2,991.2,953.4z"/>
		<path fill="#4B607A" d="M1149.4,973.1h-39.7l-8.1,18.6h-15.5l39.8-84.2h7.5l39.8,84.2h-15.4L1149.4,973.1z M1115,961.2h29.3
			l-14.7-33L1115,961.2z"/>
		<path fill="#4B607A" d="M1241.9,927v64.7h-14.3v-5.3c-5.1,3.9-11.9,6.1-19.2,6.1c-18.4,0-27.8-9.1-27.8-29.6v-36h14.2v36
			c0,11.3,6.1,17.1,16,17.1c6.9,0,12.5-2.1,16.8-6V927H1241.9z"/>
		<path fill="#4B607A" d="M1322.2,901.7v90.1h-14.2v-4.9c-5.5,3.7-12.8,5.9-20.2,5.9c-18.2,0-33-13.9-33-33.4
			c0-19.9,14.8-33.4,33-33.4c7.5,0,14.6,2.1,20.2,5.6v-29.7H1322.2z M1307.9,973.7v-29c-4.4-3.9-10.6-6.3-17.8-6.3
			c-12.1,0-21.3,9.1-21.3,20.9c0,12.2,9.2,20.8,21.3,20.8C1297.2,980,1303.5,977.7,1307.9,973.7z"/>
		<path fill="#4B607A" d="M1337.3,910.2c0-4.7,3.7-8.4,8.4-8.4c4.5,0,8.2,3.7,8.2,8.4c0,4.5-3.7,8.2-8.2,8.2
			C1341,918.4,1337.3,914.7,1337.3,910.2z M1338.5,927h14.3v64.7h-14.3V927z"/>
		<path fill="#4B607A" d="M1436.6,959.3c0,18.4-15.9,33.3-35.4,33.3s-35.4-14.9-35.4-33.3c0-18.5,15.9-33.4,35.4-33.4
			S1436.6,940.8,1436.6,959.3z M1422.6,959.3c0-11.6-9.6-20.9-21.4-20.9s-21.4,9.3-21.4,20.9c0,11.5,9.6,20.8,21.4,20.8
			S1422.6,970.7,1422.6,959.3z"/>
	</g>
	<g enable-background="new    ">
		<path fill="#4B607A" d="M470.5,1017.3l-14.4,23.9v12.5h-3v-12.5l-14.4-23.9h3.5l12.4,20.7l12.4-20.7H470.5z"/>
		<path fill="#4B607A" d="M498.7,1039.6c0,7.9-6.8,14.3-15.1,14.3c-8.4,0-15.2-6.4-15.2-14.3c0-8,6.8-14.3,15.2-14.3
			C491.9,1025.3,498.7,1031.7,498.7,1039.6z M495.8,1039.6c0-6.5-5.5-11.6-12.2-11.6s-12.3,5.2-12.3,11.6c0,6.4,5.5,11.6,12.3,11.6
			S495.8,1046.1,495.8,1039.6z"/>
		<path fill="#4B607A" d="M530.3,1025.9v27.8h-2.9v-3.3c-2.5,2.3-6.4,3.5-10.6,3.5c-7,0-12-4.1-12-12.4v-15.6h2.9v15.6
			c0,6.4,4.1,9.7,9.4,9.7c4.3,0,7.6-1.3,10.3-3.6v-21.8H530.3z"/>
		<path fill="#4B607A" d="M541.8,1032c1.7-4,4.9-6.6,9.3-6.6c1.3,0,2.7,0.3,4.2,1l-0.4,3c-1.5-0.7-3-0.9-4.3-0.9
			c-5.4,0-8.8,4.9-8.8,10.9v14.4h-2.9v-27.8h2.9V1032z"/>
		<path fill="#4B607A" d="M606.7,1017.3v36.4h-2.9V1039h-22.5v14.7h-2.9v-36.4h2.9v19.1h22.5v-19.1H606.7z"/>
		<path fill="#4B607A" d="M615.2,1018.5c0-1.1,0.9-2.1,2-2.1s2,0.9,2,2.1s-0.9,2-2,2S615.2,1019.6,615.2,1018.5z M615.8,1025.9h2.9
			v27.8h-2.9V1025.9z"/>
		<path fill="#4B607A" d="M653.3,1025.9v24.7c0,6.8-4.2,12.7-13.5,12.7c-6.3,0-7.5-0.6-11.5-1.7l0.6-2.3c3.7,1.1,5.5,1.6,10.4,1.6
			c7.5,0,10.7-4.4,10.9-9v-1.1c-2.6,2-6.2,3.2-10.3,3.2c-8,0-14.5-6.5-14.5-14.5c0-8,6.5-14.1,14.5-14.1c4,0,7.8,1.3,10.4,3.4v-2.8
			H653.3z M640.3,1051.2c4.2,0,7.7-1.3,10.1-3.6v-15.9c-2.4-2.3-6-3.7-10.1-3.7c-6.6,0-11.9,5.1-11.9,11.4
			C628.4,1045.9,633.7,1051.2,640.3,1051.2z"/>
		<path fill="#4B607A" d="M686.9,1037.7v16H684v-16c0-6.4-4.1-9.7-9.4-9.7c-4.1,0-7.3,1.3-9.9,3.5v22.2h-2.9v-38.9h2.9v14
			c2.5-2.2,6.1-3.4,10.2-3.4C682,1025.3,686.9,1029.4,686.9,1037.7z"/>
		<path fill="#4B607A" d="M737.4,1051v2.7h-25.6v-36.4h24.5v2.7h-21.6v14.7h18.4v2.7h-18.4v13.6H737.4z"/>
		<path fill="#4B607A" d="M769.4,1037.7v16h-2.9v-16c0-6.4-4-9.7-9.4-9.7c-4.1,0-7.3,1.3-9.9,3.6v22.1h-2.9v-27.8h2.9v3
			c2.5-2.3,6.1-3.5,10.2-3.5C764.5,1025.3,769.4,1029.4,769.4,1037.7z"/>
		<path fill="#4B607A" d="M803.4,1014.8v38.9h-2.9v-3.1c-2.5,2.1-6.4,3.4-10.4,3.4c-8,0-14.5-6.2-14.5-14.3
			c0-8.2,6.5-14.3,14.5-14.3c4.2,0,7.7,1.2,10.4,3.3v-13.8H803.4z M800.5,1047.5v-15.9c-2.4-2.2-5.8-3.6-10-3.6
			c-6.6,0-11.9,5.1-11.9,11.6s5.3,11.6,11.9,11.6C794.5,1051.2,798.1,1049.8,800.5,1047.5z"/>
		<path fill="#4B607A" d="M852.9,1043.8H833l-4.3,9.9h-3.2l16.6-36.4h1.9l16.6,36.4h-3.2L852.9,1043.8z M834.1,1041.2h17.7
			l-8.9-19.9L834.1,1041.2z"/>
		<path fill="#4B607A" d="M890.1,1025.9v27.8h-2.9v-3.3c-2.5,2.3-6.4,3.5-10.6,3.5c-7,0-12-4.1-12-12.4v-15.6h2.9v15.6
			c0,6.4,4.1,9.7,9.4,9.7c4.3,0,7.6-1.3,10.3-3.6v-21.8H890.1z"/>
		<path fill="#4B607A" d="M924.7,1014.8v38.9h-2.9v-3.1c-2.5,2.1-6.4,3.4-10.4,3.4c-8,0-14.5-6.2-14.5-14.3
			c0-8.2,6.5-14.3,14.5-14.3c4.2,0,7.7,1.2,10.4,3.3v-13.8H924.7z M921.8,1047.5v-15.9c-2.4-2.2-5.8-3.6-10-3.6
			c-6.6,0-11.9,5.1-11.9,11.6s5.3,11.6,11.9,11.6C915.8,1051.2,919.4,1049.8,921.8,1047.5z"/>
		<path fill="#4B607A" d="M932.7,1018.5c0-1.1,0.9-2.1,2-2.1s2,0.9,2,2.1s-0.9,2-2,2S932.7,1019.6,932.7,1018.5z M933.3,1025.9h2.9
			v27.8h-2.9V1025.9z"/>
		<path fill="#4B607A" d="M973.3,1039.6c0,7.9-6.8,14.3-15.1,14.3c-8.4,0-15.2-6.4-15.2-14.3c0-8,6.8-14.3,15.2-14.3
			C966.5,1025.3,973.3,1031.7,973.3,1039.6z M970.4,1039.6c0-6.5-5.5-11.6-12.2-11.6s-12.3,5.2-12.3,11.6c0,6.4,5.5,11.6,12.3,11.6
			S970.4,1046.1,970.4,1039.6z"/>
		<path fill="#4B607A" d="M1011.2,1017.3c9.6,0,13,5.7,13,11.9c0,9-5.9,12.7-14.3,12.7h-9.8v11.9h-3v-36.4H1011.2z M1009.7,1039.2
			c6.9,0,11.4-3.1,11.4-9.9c0-4.9-2.6-9.3-10.2-9.3h-10.7v19.2H1009.7z"/>
		<path fill="#4B607A" d="M1033.5,1032c1.7-4,4.9-6.6,9.3-6.6c1.3,0,2.7,0.3,4.2,1l-0.4,3c-1.5-0.7-3-0.9-4.3-0.9
			c-5.4,0-8.8,4.9-8.8,10.9v14.4h-2.9v-27.8h2.9V1032z"/>
		<path fill="#4B607A" d="M1081,1039.6c0,7.9-6.8,14.3-15.1,14.3c-8.4,0-15.2-6.4-15.2-14.3c0-8,6.8-14.3,15.2-14.3
			C1074.2,1025.3,1081,1031.7,1081,1039.6z M1078.1,1039.6c0-6.5-5.5-11.6-12.2-11.6c-6.8,0-12.3,5.2-12.3,11.6
			c0,6.4,5.5,11.6,12.3,11.6C1072.6,1051.2,1078.1,1046.1,1078.1,1039.6z"/>
		<path fill="#4B607A" d="M1113.8,1014.8v38.9h-2.9v-3.1c-2.5,2.1-6.4,3.4-10.4,3.4c-8,0-14.5-6.2-14.5-14.3
			c0-8.2,6.5-14.3,14.5-14.3c4.2,0,7.7,1.2,10.4,3.3v-13.8H1113.8z M1110.8,1047.5v-15.9c-2.4-2.2-5.8-3.6-10-3.6
			c-6.6,0-11.9,5.1-11.9,11.6s5.3,11.6,11.9,11.6C1104.9,1051.2,1108.4,1049.8,1110.8,1047.5z"/>
		<path fill="#4B607A" d="M1147.2,1025.9v27.8h-2.9v-3.3c-2.5,2.3-6.4,3.5-10.6,3.5c-7,0-12-4.1-12-12.4v-15.6h2.9v15.6
			c0,6.4,4.1,9.7,9.4,9.7c4.3,0,7.6-1.3,10.3-3.6v-21.8H1147.2z"/>
		<path fill="#4B607A" d="M1179.3,1049c-2.5,3-6.2,4.9-10.2,4.9c-8.4,0-15.2-6.4-15.2-14.3c0-8,6.8-14.3,15.2-14.3
			c4.1,0,7.7,1.9,10.3,4.8l-2,1.8c-2-2.4-5-3.9-8.3-3.9c-6.8,0-12.3,5.2-12.3,11.6c0,6.4,5.5,11.6,12.3,11.6c3.3,0,6.2-1.6,8.3-4.1
			L1179.3,1049z"/>
		<path fill="#4B607A" d="M1190.8,1028.4v15.8c0,5.2,2.2,7.1,5.8,7.1c2.1,0,3.4-0.3,4.3-0.5v2.4c-0.8,0.3-2.6,0.7-5.3,0.7
			c-4.3,0-7.8-2.7-7.8-8.2v-17.3h-4.9v-2.5h4.9v-11.1h2.9v11.1h10.3v2.5H1190.8z"/>
		<path fill="#4B607A" d="M1205.7,1049c3.2,1.3,6.6,2.4,10.5,2.4c6.1,0,8.3-2.7,8.3-5.4c0-3.1-3.6-4.4-8.9-5.5
			c-6.1-1.3-10.5-3.2-10.5-7.6c0-4.4,4.4-7.5,10.3-7.5c3.7,0,7.1,0.8,10.3,2.1l-1,2.3c-2.9-1.3-6.1-1.9-9.4-1.9
			c-4.3,0-7.5,2.1-7.5,5c0,2.8,3,4.1,8.6,5.2c6.5,1.3,10.8,3.2,10.8,7.9c0,4.3-3.2,8.1-11,8.1c-4.4,0-8.2-1-11.6-2.5L1205.7,1049z"
			/>
		<path fill="#4B607A" d="M1264,1053.7h-13v-36.4h11.8c10.1,0,18.3,8.2,18.3,18.2C1281.2,1045.2,1273.6,1053.1,1264,1053.7z
			 M1263.8,1050.9c7.9-0.6,14.4-7.3,14.4-15.4c0-8.5-6.9-15.4-15.3-15.4h-8.9v30.8H1263.8z"/>
		<path fill="#4B607A" d="M1314.2,1040.7h-24.7c0.7,6.2,5.7,10.5,11.7,10.5c4,0,7.6-1.5,9.9-4.4l2,1.7c-2.6,3.3-7,5.4-12.3,5.4
			c-8.4,0-14.2-6.4-14.2-14.3c0-8,5.8-14.3,14.2-14.3c8.3,0,13.4,6,13.4,14.5V1040.7z M1289.5,1038.3h21.8
			c-0.4-6-4.1-10.5-10.5-10.5C1294.4,1027.8,1290,1032.4,1289.5,1038.3z"/>
		<path fill="#4B607A" d="M1347,1025.9v27.8h-2.9v-3.1c-2.7,2.1-6.2,3.3-10.4,3.3c-8.2,0-14.4-6.5-14.4-14.3
			c0-7.7,6.2-14.3,14.4-14.3c4,0,7.8,1.3,10.4,3.5v-2.9H1347z M1344.1,1031.7c-2.4-2.3-6-3.7-10.1-3.7c-6.7,0-11.9,5.2-11.9,11.6
			c0,6.4,5.2,11.6,11.9,11.6c4.2,0,7.7-1.3,10.1-3.6V1031.7z"/>
		<path fill="#4B607A" d="M1355.5,1014.8h2.9v38.9h-2.9V1014.8z"/>
		<path fill="#4B607A" d="M1392.9,1040.7h-24.7c0.7,6.2,5.7,10.5,11.7,10.5c4,0,7.6-1.5,9.9-4.4l2,1.7c-2.6,3.3-7,5.4-12.3,5.4
			c-8.4,0-14.2-6.4-14.2-14.3c0-8,5.8-14.3,14.2-14.3c8.3,0,13.4,6,13.4,14.5V1040.7z M1368.2,1038.3h21.8
			c-0.4-6-4.1-10.5-10.5-10.5C1373.1,1027.8,1368.7,1032.4,1368.2,1038.3z"/>
		<path fill="#4B607A" d="M1402.6,1032c1.7-4,4.9-6.6,9.3-6.6c1.3,0,2.7,0.3,4.2,1l-0.4,3c-1.5-0.7-3-0.9-4.3-0.9
			c-5.4,0-8.8,4.9-8.8,10.9v14.4h-2.9v-27.8h2.9V1032z"/>
	</g>
	<g id="DA">
		<g id="XMLID_2_">
			<g>
				<path fill="#4B607A" d="M377.3,1038.8c-21.9,2.5-36.8-0.9-44.5-4.4c-6.3-3.2-8.5-4.7-11.4-7.6c-4.1-3.8-9.5-11.1-13.9-20.4
					c-1.6-3.2-4.7-10.4-8.5-17.2c-3.5-6.6-7.3-12.3-7.9-13c0.9,0.9,1.6,2.2,2.2,3.2c3.8,5.4,7,10.1,7,10.1c7,11.1,8.2,12.3,15.3,20
					c7,7.6,21.6,13.9,21.6,13.9c16.2,7.3,36.8,3.5,36.8,3.5l-42.8-165.9l2.8,1.6l6,3.5l0,0c0,0.3,0.3,0.3,0.6,0.3
					c0.9,0.6,2.5,0.6,4.1-0.3l0,0c0,0,67,256.9,67.6,259.2c0,0,3.2,12.7,7.6,17.5c3.2,3.5,9.7,4.4,11.5,4.7c-1.3,0-17.2,0-26.1,0
					L377.3,1038.8L377.3,1038.8z"/>
				<path fill="#4B607A" d="M315.7,836.5c1.3-0.9,2.5-1.9,2.8-2.2h0.3l3.8,2.2l8.2,4.7l12.3,7.3c-0.6,0.3-4.4,1.6-6.6,5.4
					c-2.5,4.1-2.8,8.5-2.8,8.5l-2.8-1.6c0,0-2.2-1.6-5.7-3.5c-3.5-2.2-7.6-4.7-11.1-6.6c-3.2-1.9-5.7-3.5-5.7-3.5v-0.3
					c0,0,0.6-1.6,1.6-3.5c0.6-1.3,1.6-2.8,2.8-4.4C313.5,838.3,314.8,837.5,315.7,836.5z"/>
				<path fill="#4B607A" d="M333.1,837.7v0.3c-0.3,0.9-1.9,3.2-1.9,3.2l-8.2-4.6c0,0,0.9-1.9,1.9-3.2c0.3-0.3,0.3-0.3,0.3-0.3
					s0.3,0,0.6,0c0.9,0.3,6.3,3.5,7,4.1C333.1,837.5,333.1,837.7,333.1,837.7z"/>
				<path fill="#4B607A" d="M325.2,857.5L325.2,857.5l-25.4,42l-11.1-6.3l4.7-7.9l6-9.8l15-24.5C317.6,853,322.1,855.5,325.2,857.5z
					"/>
				<path fill="#4B607A" d="M306.1,852l2.2,1.6c0,0-2.2,1.8-5.3,8.5c-0.6,1.3-1.6,3.5-2.2,5.7c-0.9,3.8-1,5.7-1,7.9l-6.6,9.8l0,0
					c0,0,0-1.3,0.3-3.5c0-1.3,0-2.8,0.3-4.7c0-3.2,0.9-6.3,1.3-7.3c0.3-0.9,1.3-3.2,2.8-6C300.1,860.3,303.8,855.2,306.1,852z"/>
				<path fill="#4B607A" d="M296.3,905.5v12.4l0,0l-2.2-1.6l0,0c0.6-1.3,0.9-1.9,0.9-1.9c-0.3-6.6-3.8-9.2-8.5-8.5l-1.3,1.9l0,0
					v-8.5l0,0L296.3,905.5z"/>
				<path fill="#4B607A" d="M266.8,961.2c2.5,10.8,3.8,21.9,3.8,33.3c0,78.2-63.2,141.4-141.4,141.4v-13.4c70.8,0,128-57.5,128-128
					c0-5.7-0.3-11.1-0.9-16.9C259.5,972.3,263,966.5,266.8,961.2L266.8,961.2z"/>
				<path fill="#4B607A" d="M262,945.3L262,945.3l-9.2,15.6c-14.6-54.3-64.5-94-123.2-94v-13.7C190.3,853.2,242,891.7,262,945.3z"/>
				<path fill="#4B607A" d="M252.8,960.8c1.6,5.4,2.5,11.1,3.5,17.2c-10.1,16.6-18.1,29.5-18.1,29.5s-3.8,6.3-4.7,7.9
					c-1.3,1.6-2.2,2.2-5.1,4.4c-5.7,4.1-13.9,9.2-14.2,9.5c-0.6,0.6-30.5,16.6-30.5,16.6l-1.3,0.3c-0.3,0-1.6,0-1.6,0
					c-2.5-0.3-4.1-1.6-5.7-3.5c-0.6-0.6-1.3-1.9-1.6-2.5c-0.3-0.9-0.6-2.5-0.6-2.8c0-1.6,0-4.1,0-5.1c0,0,22.9-11.1,24.5-12
					s2.8-0.6,2.8-0.6c4.7,0.3,7.3-0.3,7.3-0.3c0.9-0.3,15.6-9.8,15.6-9.8s0.9-0.6,1.6-1.6c0.6-0.9,1.9-3.2,1.9-3.2l5.1-8.5
					L252.8,960.8z"/>
				<path fill="#4B607A" d="M129.6,964v61.3c-17.2,0-30.8-13.6-30.8-30.8C98.8,977.8,112.5,964,129.6,964z"/>
			</g>
			<g>
				<path fill="none" stroke="#4B607A" stroke-miterlimit="1" d="M129.6,1122.8c70.5,0,127.7-57.5,127.7-128
					c0-5.7-0.3-11.1-0.9-16.9c-0.6-5.7-1.9-11.4-3.5-17.2c-14.6-54.3-64.5-94-123.2-94C59.1,866.5,1.9,923.8,1.9,994.3
					C1.6,1065.2,58.8,1122.8,129.6,1122.8z"/>
				<path fill="none" stroke="#576F75" stroke-miterlimit="1" d="M262,945.3c-20-53.7-71.8-92.1-132.5-92.1v13.6V964v61.3v97.2v13.5
					c78.2,0,141.4-63.2,141.4-141.4c0-11.4-1.3-22.9-3.8-33.3"/>
				<path fill="none" stroke="#576F75" stroke-miterlimit="1" d="M129.6,1025.3c16.9,0,30.5-13.6,30.5-30.8s-13.6-30.8-30.5-30.8
					c-17.2,0-30.8,13.6-30.8,30.8C98.8,1011.5,112.5,1025.3,129.6,1025.3z"/>
				<path fill="none" stroke="#576F75" stroke-miterlimit="1" d="M182,1049.3c-0.6,0.3-1.9-0.3-1.9-0.3c-1.6-0.6-3.5-1.9-5.7-4.1
					c-0.6-0.6-0.9-1.9-1.6-2.8c0,0-0.3-1.6-0.3-3.2v-1.9c0,0,0,0,0,0.3s0.3,1.9,0.6,2.8c0.3,0.6,0.9,1.9,1.6,2.5
					c1.6,1.9,3.2,3.2,5.7,3.5c0,0,0.9,0.3,1.6,0l1.3-0.3c0,0,29.9-15.9,30.5-16.6c0,0-0.3,0.6-0.3,1.6c0,0.3-0.3,0.6-0.3,1.3
					c-0.3,0.3-0.3,0.3-0.6,0.9l-0.6,0.5c-0.6,0.6-0.3,0.3-1.3,0.9c0,0-8.5,4.4-16.2,8.5C187.7,1046.1,182,1049.3,182,1049.3z"/>
				<line fill="none" stroke="#576F75" stroke-miterlimit="1" x1="181.7" y1="1046.3" x2="182" y2="1049.3"/>
				<path fill="none" stroke="#576F75" stroke-miterlimit="1" d="M172.5,1037.2c0-1.6,0-4.1,0-5.1c0,0,22.9-11.1,24.5-12
					s2.8-0.6,2.8-0.6c4.7,0.3,7.3-0.3,7.3-0.3c0.9-0.3,15.6-9.8,15.6-9.8s0.9-0.6,1.6-1.6c0.6-0.9,1.9-3.2,1.9-3.2l5.1-8.5
					l21.3-34.9l9.5-15.3l0,0l22.9-37.5l1.3-1.9c4.7-0.6,8.2,1.9,8.5,8.5c0,0-0.3,0.6-0.9,1.9c-3.5,6-15.3,24.8-27,44.2
					c0,0,0,0.3-0.3,0.3c-3.5,5.7-7,11.4-10.4,16.9c-10.2,16.6-18.1,29.5-18.1,29.5s-3.8,6.3-4.7,7.9c-1.3,1.6-2.2,2.2-5.1,4.4
					c-5.7,4.1-13.9,9.2-14.2,9.5"/>
				<polyline fill="none" stroke="#576F75" stroke-miterlimit="1" points="293.8,916.8 296.3,918 296.3,918.3 330.9,861.2 
					333.8,862.8 339.9,866.3 				"/>
				<path fill="none" stroke="#576F75" stroke-miterlimit="1" d="M344.6,866.5c1.6-0.9,3.2-2.2,4.4-4.4c2.5-3.8,3.2-8.9,0.9-9.8
					c-0.3,0-0.3-0.3-0.6-0.3c-2.5-0.6-5.7,0.9-8.2,4.7c-2.5,3.5-2.8,7.3-1.6,9.2l0,0c0,0.3,0.3,0.3,0.6,0.3
					C341.5,867.5,343.1,867.5,344.6,866.5z"/>
				<path fill="none" stroke="#576F75" stroke-miterlimit="1" d="M291.2,975.5c-2.5-3.2-5.7-6.6-9.2-8.9c-7-4.7-14.6-5.4-15.3-5.7"
					/>
				<path fill="none" stroke="#576F75" stroke-miterlimit="1" d="M323,836.5l-3.8-2.2h-0.3c-0.3,0.3-1.6,1.3-2.8,2.2
					c-0.9,0.9-2.2,2.2-2.8,2.8c-1.3,1.6-2.2,3.2-2.8,4.4c-1.3,1.9-1.9,3.5-1.9,3.5v0.3c0,0,2.5,1.6,5.7,3.5
					c3.5,2.2,7.6,4.7,11.1,6.6c3.2,1.9,5.7,3.5,5.7,3.5l43.2,165.6c0,0-20.7,3.8-36.8-3.5c0,0-14.6-6-21.6-13.9
					c-7-7.6-7.9-8.9-15.3-20c0,0-2.8-4.7-7-10.1c-0.6-0.9-1.6-2.2-2.2-3.2"/>
				<polyline fill="none" stroke="#576F75" stroke-miterlimit="1" points="349.4,852.2 343.4,848.5 330.9,841.2 				"/>
				<path fill="none" stroke="#576F75" stroke-miterlimit="1" d="M309.9,843.7l-3.5-2.2c0,0,0.6-1.6,2.5-3.8s3.5-2.8,3.5-2.8
					l3.2,1.6l0,0"/>
				<path fill="none" stroke="#576F75" stroke-miterlimit="1" d="M323,836.5c0,0,0.9-1.9,1.9-3.2c0.3-0.3,0.3-0.3,0.3-0.3
					s0.3,0,0.6,0c0.9,0.3,6.3,3.5,7,4.1l0.3,0.3v0.3c-0.3,0.9-1.9,3.2-1.9,3.2L323,836.5z"/>
				<line fill="none" stroke="#576F75" stroke-miterlimit="1" x1="284.9" y1="899.5" x2="284.9" y2="908.2"/>
				<line fill="none" stroke="#576F75" stroke-miterlimit="1" x1="296.3" y1="905.5" x2="284.9" y2="899.5"/>
				<polyline fill="none" stroke="#576F75" stroke-miterlimit="1" points="288.7,893.3 288.7,893.5 284.9,899.5 284.9,899.5 				"/>
				<polyline fill="none" stroke="#576F75" stroke-miterlimit="1" points="314.5,851 299.5,875.5 293.5,885.5 288.7,893.3 				"/>
				<path fill="none" stroke="#576F75" stroke-miterlimit="1" d="M333.8,862.8c0,0,0-4.4,2.8-8.5c2.5-3.8,6.3-5.1,6.6-5.4l0,0"/>
				<polyline fill="none" stroke="#576F75" stroke-miterlimit="1" points="296.3,918 296.3,905.5 300.1,899.5 325.2,857.5 				"/>
				<polyline fill="none" stroke="#576F75" stroke-miterlimit="1" points="288.7,893.3 288.7,893.3 300.1,899.5 300.1,899.5 				"/>
				<path fill="none" stroke="#576F75" stroke-miterlimit="1" d="M288.7,893.5c0,0-2.2-7.3,4.7-11.4"/>
				<path fill="none" stroke="#576F75" stroke-miterlimit="1" d="M293.5,885.3c0,0,0-1.3,0.3-3.5c0-1.3,0-2.8,0.3-4.7
					c0-3.2,0.9-6.3,1.3-7.3c0.3-0.9,1.3-3.2,2.8-6c2.2-3.8,5.4-8.5,7.9-11.7l2.2,1.6c0,0-1.6,1.3-4.7,7.9c-0.6,1.3-1.6,3.5-2.2,5.7
					c-0.9,3.8-1.6,5.7-1.6,7.9"/>
				<path fill="none" stroke="#576F75" stroke-miterlimit="1" d="M291.2,975.5L291.2,975.5c0.6,0.9,4.4,6.6,7.9,13.3
					c3.8,6.6,7,13.9,8.5,17.2c4.1,9.2,9.5,16.6,13.9,20.4c2.8,2.8,5.1,4.4,11.4,7.6c7.6,3.8,22.6,7.3,44.5,4.4l0,0"/>
				<line fill="none" stroke="#576F75" stroke-miterlimit="1" x1="377.3" y1="1038.8" x2="405.6" y2="1147.1"/>
				<path fill="none" stroke="#576F75" stroke-miterlimit="1" d="M344.6,867c0,0,67,256.9,67.6,259.2c0,0,3.2,12.7,7.6,17.5
					c3.2,3.5,10.1,3.5,12,3.8c-1.3,0-17.8,0-26.7,0c-3.5,0-5.7,0-5.7,0"/>
				<path fill="none" stroke="#576F75" stroke-miterlimit="1" d="M346.5,858c-0.3-0.6-1.6-0.3-2.2,1.3c-1.3,2.2,0.3,1.9,0.3,1.9"/>
				<polygon fill="none" stroke="#576F75" stroke-miterlimit="1" points="193.8,1043.2 194.5,1049.8 195.1,1042.4 				"/>
			</g>
		</g>
	</g>
</g>
<g id="Type">
</g>
</svg>
