<?xml version="1.0" encoding="utf-8"?>
<!-- Generator: Adobe Illustrator 18.0.0, SVG Export Plug-In . SVG Version: 6.00 Build 0)  -->
<!DOCTYPE svg PUBLIC "-//W3C//DTD SVG 1.1//EN" "http://www.w3.org/Graphics/SVG/1.1/DTD/svg11.dtd">
<svg version="1.1" xmlns="http://www.w3.org/2000/svg" xmlns:xlink="http://www.w3.org/1999/xlink" x="0px" y="0px"
	 viewBox="0 0 454.8 99.9" enable-background="new 0 0 454.8 99.9" xml:space="preserve">
<g id="Stripes_2">
</g>
<g id="Stripes_1">
</g>
<g id="Graphic">
</g>
<g id="Logo">
	<text transform="matrix(1 0 0 1 130.4861 50.5182)"><tspan x="0" y="0" fill="#2E4495" font-family="'ZonaPro-SemiBold'" font-size="37.6062">Distinctive Audio</tspan><tspan x="7.3" y="19.5" fill="#2E4495" font-family="'ZonaPro-Light'" font-size="16.2574">Your High End Audio Products Dealer</tspan></text>
	<g id="DA">
		<g id="XMLID_2_">
			<g>
				<path fill="#2E4495" d="M118.8,65.3c-6.9,0.8-11.6-0.3-14-1.4c-2-1-2.7-1.5-3.6-2.4c-1.3-1.2-3-3.5-4.4-6.4
					c-0.5-1-1.5-3.3-2.7-5.4c-1.1-2.1-2.3-3.9-2.5-4.1c0.3,0.3,0.5,0.7,0.7,1c1.2,1.7,2.2,3.2,2.2,3.2c2.2,3.5,2.6,3.9,4.8,6.3
					c2.2,2.4,6.8,4.4,6.8,4.4c5.1,2.3,11.6,1.1,11.6,1.1L104.2,9.4l0.9,0.5L107,11l0,0c0,0.1,0.1,0.1,0.2,0.1
					c0.3,0.2,0.8,0.2,1.3-0.1v0c0,0,21.1,80.9,21.3,81.6c0,0,1,4,2.4,5.5c1,1.1,3.2,1.1,3.8,1.2c-0.4,0-5.6,0-8.4,0L118.8,65.3
					L118.8,65.3z"/>
				<path fill="#2E4495" d="M99.4,1.6c0.4-0.3,0.8-0.6,0.9-0.7c0,0,0.1,0,0.1,0l1.2,0.7l2.6,1.5l3.9,2.3c-0.2,0.1-1.4,0.5-2.1,1.7
					c-0.8,1.3-0.9,2.7-0.9,2.7l-0.9-0.5c0,0-0.7-0.5-1.8-1.1c-1.1-0.7-2.4-1.5-3.5-2.1c-1-0.6-1.8-1.1-1.8-1.1c0,0,0-0.1,0-0.1
					s0.2-0.5,0.5-1.1c0.2-0.4,0.5-0.9,0.9-1.4C98.7,2.2,99.1,1.9,99.4,1.6z"/>
				<path fill="#2E4495" d="M104.9,2c0,0,0,0.1,0,0.1c-0.1,0.3-0.6,1-0.6,1l-2.6-1.5c0,0,0.3-0.6,0.6-1c0.1-0.1,0.1-0.1,0.1-0.1
					c0,0,0.1,0,0.2,0c0.3,0.1,2,1.1,2.2,1.3C104.9,1.9,104.9,2,104.9,2z"/>
				<path fill="#2E4495" d="M102.4,8.3L102.4,8.3l-8,13.2l-3.5-2l1.5-2.5l1.9-3.1L99,6.2C100,6.8,101.4,7.6,102.4,8.3z"/>
				<path fill="#2E4495" d="M96.2,6.7l0.7,0.5c0,0-0.5,0.4-1.5,2.5c-0.2,0.4-0.5,1.1-0.7,1.8c-0.3,1.2-0.5,1.8-0.5,2.5l-1.9,3.1l0,0
					c0,0,0-0.4,0.1-1.1c0-0.4,0-0.9,0.1-1.5c0-1,0.3-2,0.4-2.3c0.1-0.3,0.4-1,0.9-1.9C94.5,9.1,95.5,7.7,96.2,6.7z"/>
				<path fill="#2E4495" d="M93.3,23.4v3.9l0,0l-0.7-0.5l0,0c0.2-0.4,0.3-0.6,0.3-0.6c-0.1-2.1-1.2-2.9-2.7-2.7l-0.4,0.6l0,0v-2.7v0
					L93.3,23.4z"/>
				<path fill="#2E4495" d="M84,40.9c0.8,3.4,1.2,6.9,1.2,10.5c0,24.6-19.9,44.5-44.5,44.5v-4.2C63,91.7,81,73.6,81,51.4
					c0-1.8-0.1-3.5-0.3-5.3C81.7,44.4,82.8,42.6,84,40.9L84,40.9z"/>
				<path fill="#2E4495" d="M82.5,35.9L82.5,35.9l-2.9,4.9c-4.6-17.1-20.3-29.6-38.8-29.6V6.9C59.9,6.9,76.2,19,82.5,35.9z"/>
				<path fill="#2E4495" d="M79.6,40.8c0.5,1.7,0.8,3.5,1.1,5.4c-3.2,5.2-5.7,9.3-5.7,9.3s-1.2,2-1.5,2.5c-0.4,0.5-0.7,0.7-1.6,1.4
					c-1.8,1.3-4.4,2.9-4.5,3c-0.2,0.2-9.6,5.2-9.6,5.2l-0.4,0.1c-0.1,0-0.5,0-0.5,0c-0.8-0.1-1.3-0.5-1.8-1.1
					c-0.2-0.2-0.4-0.6-0.5-0.8c-0.1-0.3-0.2-0.8-0.2-0.9c0-0.5,0-1.3,0-1.6c0,0,7.2-3.5,7.7-3.8c0.5-0.3,0.9-0.2,0.9-0.2
					c1.5,0.1,2.3-0.1,2.3-0.1c0.3-0.1,4.9-3.1,4.9-3.1s0.3-0.2,0.5-0.5c0.2-0.3,0.6-1,0.6-1l1.6-2.7L79.6,40.8z"/>
				<path fill="#2E4495" d="M40.8,41.8v19.3c-5.4,0-9.7-4.3-9.7-9.7C31.1,46.1,35.4,41.8,40.8,41.8z"/>
			</g>
			<g>
				<path fill="none" stroke="#2E4495" stroke-width="0.5278" stroke-miterlimit="1" d="M40.8,91.7C63,91.7,81,73.6,81,51.4
					c0-1.8-0.1-3.5-0.3-5.3c-0.2-1.8-0.6-3.6-1.1-5.4c-4.6-17.1-20.3-29.6-38.8-29.6c-22.2,0-40.2,18-40.2,40.2
					C0.5,73.6,18.5,91.7,40.8,91.7z"/>
				<path fill="none" stroke="#2E4495" stroke-width="0.5278" stroke-miterlimit="1" d="M82.5,35.9c-6.3-16.9-22.6-29-41.7-29v4.3
					v30.6v19.3v30.6v4.2c24.6,0,44.5-19.9,44.5-44.5c0-3.6-0.4-7.2-1.2-10.5"/>
				<path fill="none" stroke="#2E4495" stroke-width="0.5278" stroke-miterlimit="1" d="M40.8,61.1c5.3,0,9.6-4.3,9.6-9.7
					c0-5.4-4.3-9.7-9.6-9.7c-5.4,0-9.7,4.3-9.7,9.7C31.1,56.7,35.4,61.1,40.8,61.1z"/>
				<path fill="none" stroke="#2E4495" stroke-width="0.5278" stroke-miterlimit="1" d="M57.3,68.6c-0.2,0.1-0.6-0.1-0.6-0.1
					c-0.5-0.2-1.1-0.6-1.8-1.3c-0.2-0.2-0.3-0.6-0.5-0.9c0,0-0.1-0.5-0.1-1l0-0.6c0,0,0,0,0,0.1c0,0.1,0.1,0.6,0.2,0.9
					c0.1,0.2,0.3,0.6,0.5,0.8c0.5,0.6,1,1,1.8,1.1c0,0,0.3,0.1,0.5,0l0.4-0.1c0,0,9.4-5,9.6-5.2c0,0-0.1,0.2-0.1,0.5
					c0,0.1-0.1,0.2-0.1,0.4c-0.1,0.1-0.1,0.1-0.2,0.3l-0.2,0.2c-0.2,0.2-0.1,0.1-0.4,0.3c0,0-2.7,1.4-5.1,2.7
					C59.1,67.6,57.3,68.6,57.3,68.6z"/>
				<line fill="none" stroke="#2E4495" stroke-width="0.5278" stroke-miterlimit="1" x1="57.2" y1="67.7" x2="57.3" y2="68.6"/>
				<path fill="none" stroke="#2E4495" stroke-width="0.5278" stroke-miterlimit="1" d="M54.3,64.8c0-0.5,0-1.3,0-1.6
					c0,0,7.2-3.5,7.7-3.8c0.5-0.3,0.9-0.2,0.9-0.2c1.5,0.1,2.3-0.1,2.3-0.1c0.3-0.1,4.9-3.1,4.9-3.1s0.3-0.2,0.5-0.5
					c0.2-0.3,0.6-1,0.6-1l1.6-2.7l6.7-11l3-4.8h0l7.2-11.8l0.4-0.6c1.5-0.2,2.6,0.6,2.7,2.7c0,0-0.1,0.2-0.3,0.6
					c-1.1,1.9-4.8,7.8-8.5,13.9c0,0,0,0.1-0.1,0.1c-1.1,1.8-2.2,3.6-3.3,5.3c-3.2,5.2-5.7,9.3-5.7,9.3s-1.2,2-1.5,2.5
					c-0.4,0.5-0.7,0.7-1.6,1.4c-1.8,1.3-4.4,2.9-4.5,3"/>
				<polyline fill="none" stroke="#2E4495" stroke-width="0.5278" stroke-miterlimit="1" points="92.5,26.9 93.3,27.3 93.3,27.4 
					104.2,9.4 105.1,9.9 107,11 				"/>
				<path fill="none" stroke="#2E4495" stroke-width="0.5278" stroke-miterlimit="1" d="M108.5,11.1c0.5-0.3,1-0.7,1.4-1.4
					c0.8-1.2,1-2.8,0.3-3.1c-0.1,0-0.1-0.1-0.2-0.1c-0.8-0.2-1.8,0.3-2.6,1.5c-0.8,1.1-0.9,2.3-0.5,2.9l0,0c0,0.1,0.1,0.1,0.2,0.1
					C107.5,11.4,108,11.4,108.5,11.1z"/>
				<path fill="none" stroke="#2E4495" stroke-width="0.5278" stroke-miterlimit="1" d="M91.7,45.4c-0.8-1-1.8-2.1-2.9-2.8
					c-2.2-1.5-4.6-1.7-4.8-1.8"/>
				<path fill="none" stroke="#2E4495" stroke-width="0.5278" stroke-miterlimit="1" d="M101.7,1.6l-1.2-0.7c0,0-0.1,0-0.1,0
					c-0.1,0.1-0.5,0.4-0.9,0.7c-0.3,0.3-0.7,0.7-0.9,0.9c-0.4,0.5-0.7,1-0.9,1.4C97.3,4.5,97.1,5,97.1,5s0,0.1,0,0.1
					c0,0,0.8,0.5,1.8,1.1c1.1,0.7,2.4,1.5,3.5,2.1c1,0.6,1.8,1.1,1.8,1.1l13.6,52.1c0,0-6.5,1.2-11.6-1.1c0,0-4.6-1.9-6.8-4.4
					c-2.2-2.4-2.5-2.8-4.8-6.3c0,0-0.9-1.5-2.2-3.2c-0.2-0.3-0.5-0.7-0.7-1"/>
				<polyline fill="none" stroke="#2E4495" stroke-width="0.5278" stroke-miterlimit="1" points="110,6.6 108.1,5.4 104.2,3.1 				
					"/>
				<path fill="none" stroke="#2E4495" stroke-width="0.5278" stroke-miterlimit="1" d="M97.6,3.9l-1.1-0.7c0,0,0.2-0.5,0.8-1.2
					c0.6-0.7,1.1-0.9,1.1-0.9l1,0.5l0,0"/>
				<path fill="none" stroke="#2E4495" stroke-width="0.5278" stroke-miterlimit="1" d="M101.7,1.6c0,0,0.3-0.6,0.6-1
					c0.1-0.1,0.1-0.1,0.1-0.1c0,0,0.1,0,0.2,0c0.3,0.1,2,1.1,2.2,1.3c0,0,0.1,0.1,0.1,0.1c0,0,0,0.1,0,0.1c-0.1,0.3-0.6,1-0.6,1
					L101.7,1.6z"/>
				<line fill="none" stroke="#2E4495" stroke-width="0.5278" stroke-miterlimit="1" x1="89.7" y1="21.5" x2="89.7" y2="24.2"/>
				<line fill="none" stroke="#2E4495" stroke-width="0.5278" stroke-miterlimit="1" x1="93.3" y1="23.4" x2="89.7" y2="21.5"/>
				<polyline fill="none" stroke="#2E4495" stroke-width="0.5278" stroke-miterlimit="1" points="90.9,19.5 90.9,19.6 89.7,21.5 
					89.7,21.5 				"/>
				<polyline fill="none" stroke="#2E4495" stroke-width="0.5278" stroke-miterlimit="1" points="99,6.2 94.3,13.9 92.4,17.1 
					90.9,19.5 				"/>
				<path fill="none" stroke="#2E4495" stroke-width="0.5278" stroke-miterlimit="1" d="M105.1,9.9c0,0,0-1.4,0.9-2.7
					c0.8-1.2,2-1.6,2.1-1.7c0,0,0,0,0,0"/>
				<polyline fill="none" stroke="#2E4495" stroke-width="0.5278" stroke-miterlimit="1" points="93.3,27.3 93.3,23.4 94.5,21.5 
					102.4,8.3 				"/>
				<polyline fill="none" stroke="#2E4495" stroke-width="0.5278" stroke-miterlimit="1" points="90.9,19.5 90.9,19.5 94.5,21.5 
					94.5,21.5 				"/>
				<path fill="none" stroke="#2E4495" stroke-width="0.5278" stroke-miterlimit="1" d="M90.9,19.6c0,0-0.7-2.3,1.5-3.6"/>
				<path fill="none" stroke="#2E4495" stroke-width="0.5278" stroke-miterlimit="1" d="M92.4,17c0,0,0-0.4,0.1-1.1
					c0-0.4,0-0.9,0.1-1.5c0-1,0.3-2,0.4-2.3c0.1-0.3,0.4-1,0.9-1.9c0.7-1.2,1.7-2.7,2.5-3.7l0.7,0.5c0,0-0.5,0.4-1.5,2.5
					c-0.2,0.4-0.5,1.1-0.7,1.8c-0.3,1.2-0.5,1.8-0.5,2.5"/>
				<path fill="none" stroke="#2E4495" stroke-width="0.5278" stroke-miterlimit="1" d="M91.7,45.4C91.7,45.4,91.7,45.4,91.7,45.4
					c0.2,0.3,1.4,2.1,2.5,4.2c1.2,2.1,2.2,4.4,2.7,5.4c1.3,2.9,3,5.2,4.4,6.4c0.9,0.9,1.6,1.4,3.6,2.4c2.4,1.2,7.1,2.3,14,1.4
					c0,0,0,0,0,0"/>
				<line fill="none" stroke="#2E4495" stroke-width="0.5278" stroke-miterlimit="1" x1="118.8" y1="65.3" x2="127.7" y2="99.4"/>
				<path fill="none" stroke="#2E4495" stroke-width="0.5278" stroke-miterlimit="1" d="M108.5,11.2c0,0,21.1,80.9,21.3,81.6
					c0,0,1,4,2.4,5.5c1,1.1,3.2,1.1,3.8,1.2c-0.4,0-5.6,0-8.4,0c-1.1,0-1.8,0-1.8,0"/>
				<path fill="none" stroke="#2E4495" stroke-width="0.5278" stroke-miterlimit="1" d="M109.1,8.4c-0.1-0.2-0.5-0.1-0.7,0.4
					c-0.4,0.7,0.1,0.6,0.1,0.6"/>
				<polygon fill="none" stroke="#2E4495" stroke-width="0.5278" stroke-miterlimit="1" points="61,66.7 61.2,68.8 61.4,66.5 				
					"/>
			</g>
		</g>
	</g>
</g>
<g id="Type">
</g>
</svg>
