<?xml version="1.0" encoding="utf-8"?>
<!-- Generator: Adobe Illustrator 18.0.0, SVG Export Plug-In . SVG Version: 6.00 Build 0)  -->
<!DOCTYPE svg PUBLIC "-//W3C//DTD SVG 1.1//EN" "http://www.w3.org/Graphics/SVG/1.1/DTD/svg11.dtd">
<svg version="1.1" id="Layer_1" xmlns="http://www.w3.org/2000/svg" xmlns:xlink="http://www.w3.org/1999/xlink" x="0px" y="0px"
	 viewBox="1.4 630.2 1440 315.5" enable-background="new 1.4 630.2 1440 315.5" xml:space="preserve">
<g id="Stripes_2">
</g>
<g id="Stripes_1">
</g>
<g id="Graphic">
</g>
<g id="Logo">
	<text transform="matrix(1 0 0 1 414.4678 789.5049)" fill="#4B607A" font-family="'ZonaPro-SemiBold'" font-size="119.4514">Distinctive Audio</text>
	<text transform="matrix(1 0 0 1 437.6553 851.4435)" fill="#4B607A" font-family="'ZonaPro-Light'" font-size="51.6396">Your High End Audio Products Dealer</text>
	<g id="DA">
		<g id="XMLID_2_">
			<g>
				<path fill="#4B607A" d="M377.3,836.5c-21.9,2.5-36.8-0.9-44.5-4.4c-6.3-3.2-8.5-4.7-11.4-7.6c-4.1-3.8-9.5-11.1-13.9-20.4
					c-1.6-3.2-4.7-10.4-8.5-17.2c-3.5-6.6-7.3-12.3-7.9-13c0.9,0.9,1.6,2.2,2.2,3.2c3.8,5.4,7,10.1,7,10.1c7,11.1,8.2,12.3,15.3,20
					c7,7.6,21.6,13.9,21.6,13.9c16.2,7.3,36.8,3.5,36.8,3.5l-42.8-165.9l2.8,1.6l6,3.5l0,0c0,0.3,0.3,0.3,0.6,0.3
					c0.9,0.6,2.5,0.6,4.1-0.3l0,0c0,0,67,256.9,67.6,259.2c0,0,3.2,12.7,7.6,17.5c3.2,3.5,9.7,4.4,11.5,4.7c-1.3,0-17.2,0-26.1,0
					L377.3,836.5L377.3,836.5z"/>
				<path fill="#4B607A" d="M315.7,634.2c1.3-0.9,2.5-1.9,2.8-2.2h0.3l3.8,2.2l8.2,4.7l12.3,7.3c-0.6,0.3-4.4,1.6-6.6,5.4
					c-2.5,4.1-2.8,8.5-2.8,8.5l-2.8-1.6c0,0-2.2-1.6-5.7-3.5c-3.5-2.2-7.6-4.7-11.1-6.6c-3.2-1.9-5.7-3.5-5.7-3.5v-0.3
					c0,0,0.6-1.6,1.6-3.5c0.6-1.3,1.6-2.8,2.8-4.4C313.5,636.1,314.8,635.2,315.7,634.2z"/>
				<path fill="#4B607A" d="M333.1,635.4v0.3c-0.3,0.9-1.9,3.2-1.9,3.2l-8.2-4.6c0,0,0.9-1.9,1.9-3.2c0.3-0.3,0.3-0.3,0.3-0.3
					s0.3,0,0.6,0c0.9,0.3,6.3,3.5,7,4.1C333.1,635.2,333.1,635.4,333.1,635.4z"/>
				<path fill="#4B607A" d="M325.2,655.2L325.2,655.2l-25.4,42l-11.1-6.3l4.7-7.9l6-9.8l15-24.5
					C317.6,650.7,322.1,653.2,325.2,655.2z"/>
				<path fill="#4B607A" d="M306.1,649.8l2.2,1.6c0,0-2.2,1.8-5.3,8.5c-0.6,1.3-1.6,3.5-2.2,5.7c-0.9,3.8-1,5.7-1,7.9l-6.6,9.8l0,0
					c0,0,0-1.3,0.3-3.5c0-1.3,0-2.8,0.3-4.7c0-3.2,0.9-6.3,1.3-7.3c0.3-0.9,1.3-3.2,2.8-6C300.1,658.1,303.8,652.9,306.1,649.8z"/>
				<path fill="#4B607A" d="M296.3,703.2v12.4l0,0l-2.2-1.6l0,0c0.6-1.3,0.9-1.9,0.9-1.9c-0.3-6.6-3.8-9.2-8.5-8.5l-1.3,1.9l0,0
					v-8.5l0,0L296.3,703.2z"/>
				<path fill="#4B607A" d="M266.8,759c2.5,10.8,3.8,21.9,3.8,33.3c0,78.2-63.2,141.4-141.4,141.4v-13.4c70.8,0,128-57.5,128-128
					c0-5.7-0.3-11.1-0.9-16.9C259.5,770.1,263,764.2,266.8,759L266.8,759z"/>
				<path fill="#4B607A" d="M262,743.1L262,743.1l-9.2,15.6c-14.6-54.3-64.5-94-123.2-94V651C190.3,650.9,242,689.4,262,743.1z"/>
				<path fill="#4B607A" d="M252.8,758.6c1.6,5.4,2.5,11.1,3.5,17.2c-10.1,16.6-18.1,29.5-18.1,29.5s-3.8,6.3-4.7,7.9
					c-1.3,1.6-2.2,2.2-5.1,4.4c-5.7,4.1-13.9,9.2-14.2,9.5c-0.6,0.6-30.5,16.6-30.5,16.6l-1.3,0.3c-0.3,0-1.6,0-1.6,0
					c-2.5-0.3-4.1-1.6-5.7-3.5c-0.6-0.6-1.3-1.9-1.6-2.5c-0.3-0.9-0.6-2.5-0.6-2.8c0-1.6,0-4.1,0-5.1c0,0,22.9-11.1,24.5-12
					s2.8-0.6,2.8-0.6c4.7,0.3,7.3-0.3,7.3-0.3c0.9-0.3,15.6-9.8,15.6-9.8s0.9-0.6,1.6-1.6c0.6-0.9,1.9-3.2,1.9-3.2l5.1-8.5
					L252.8,758.6z"/>
				<path fill="#4B607A" d="M129.6,761.8v61.3c-17.2,0-30.8-13.6-30.8-30.8C98.8,775.5,112.5,761.8,129.6,761.8z"/>
			</g>
			<g>
				<path fill="none" stroke="#4B607A" stroke-miterlimit="1" d="M129.6,920.5c70.5,0,127.7-57.5,127.7-128c0-5.7-0.3-11.1-0.9-16.9
					c-0.6-5.7-1.9-11.4-3.5-17.2c-14.6-54.3-64.5-94-123.2-94C59.1,664.2,1.9,721.5,1.9,792.1C1.6,863,58.8,920.5,129.6,920.5z"/>
				<path fill="none" stroke="#576F75" stroke-miterlimit="1" d="M262,743.1c-20-53.7-71.8-92.1-132.5-92.1v13.6v97.2v61.3v97.2
					v13.5c78.2,0,141.4-63.2,141.4-141.4c0-11.4-1.3-22.9-3.8-33.3"/>
				<path fill="none" stroke="#576F75" stroke-miterlimit="1" d="M129.6,823.1c16.9,0,30.5-13.6,30.5-30.8
					c0-17.2-13.6-30.8-30.5-30.8c-17.2,0-30.8,13.6-30.8,30.8C98.8,809.2,112.5,823.1,129.6,823.1z"/>
				<path fill="none" stroke="#576F75" stroke-miterlimit="1" d="M182,847.1c-0.6,0.3-1.9-0.3-1.9-0.3c-1.6-0.6-3.5-1.9-5.7-4.1
					c-0.6-0.6-0.9-1.9-1.6-2.8c0,0-0.3-1.6-0.3-3.2v-1.9c0,0,0,0,0,0.3c0,0.3,0.3,1.9,0.6,2.8c0.3,0.6,0.9,1.9,1.6,2.5
					c1.6,1.9,3.2,3.2,5.7,3.5c0,0,0.9,0.3,1.6,0l1.3-0.3c0,0,29.9-15.9,30.5-16.6c0,0-0.3,0.6-0.3,1.6c0,0.3-0.3,0.6-0.3,1.3
					c-0.3,0.3-0.3,0.3-0.6,0.9l-0.6,0.5c-0.6,0.6-0.3,0.3-1.3,0.9c0,0-8.5,4.4-16.2,8.5C187.7,843.8,182,847.1,182,847.1z"/>
				<line fill="none" stroke="#576F75" stroke-miterlimit="1" x1="181.7" y1="844.1" x2="182" y2="847.1"/>
				<path fill="none" stroke="#576F75" stroke-miterlimit="1" d="M172.5,835c0-1.6,0-4.1,0-5.1c0,0,22.9-11.1,24.5-12
					s2.8-0.6,2.8-0.6c4.7,0.3,7.3-0.3,7.3-0.3c0.9-0.3,15.6-9.8,15.6-9.8s0.9-0.6,1.6-1.6c0.6-0.9,1.9-3.2,1.9-3.2l5.1-8.5
					l21.3-34.9l9.5-15.3l0,0l22.9-37.5l1.3-1.9c4.7-0.6,8.2,1.9,8.5,8.5c0,0-0.3,0.6-0.9,1.9c-3.5,6-15.3,24.8-27,44.2
					c0,0,0,0.3-0.3,0.3c-3.5,5.7-7,11.4-10.4,16.9c-10.2,16.6-18.1,29.5-18.1,29.5s-3.8,6.3-4.7,7.9c-1.3,1.6-2.2,2.2-5.1,4.4
					c-5.7,4.1-13.9,9.2-14.2,9.5"/>
				<polyline fill="none" stroke="#576F75" stroke-miterlimit="1" points="293.8,714.5 296.3,715.8 296.3,716.1 330.9,658.9 
					333.8,660.5 339.9,664.1 				"/>
				<path fill="none" stroke="#576F75" stroke-miterlimit="1" d="M344.6,664.2c1.6-0.9,3.2-2.2,4.4-4.4c2.5-3.8,3.2-8.9,0.9-9.8
					c-0.3,0-0.3-0.3-0.6-0.3c-2.5-0.6-5.7,0.9-8.2,4.7c-2.5,3.5-2.8,7.3-1.6,9.2l0,0c0,0.3,0.3,0.3,0.6,0.3
					C341.5,665.2,343.1,665.2,344.6,664.2z"/>
				<path fill="none" stroke="#576F75" stroke-miterlimit="1" d="M291.2,773.2c-2.5-3.2-5.7-6.6-9.2-8.9c-7-4.7-14.6-5.4-15.3-5.7"
					/>
				<path fill="none" stroke="#576F75" stroke-miterlimit="1" d="M323,634.2l-3.8-2.2h-0.3c-0.3,0.3-1.6,1.3-2.8,2.2
					c-0.9,0.9-2.2,2.2-2.8,2.8c-1.3,1.6-2.2,3.2-2.8,4.4c-1.3,1.9-1.9,3.5-1.9,3.5v0.3c0,0,2.5,1.6,5.7,3.5
					c3.5,2.2,7.6,4.7,11.1,6.6c3.2,1.9,5.7,3.5,5.7,3.5l43.2,165.6c0,0-20.7,3.8-36.8-3.5c0,0-14.6-6-21.6-13.9
					c-7-7.6-7.9-8.9-15.3-20c0,0-2.8-4.7-7-10.1c-0.6-0.9-1.6-2.2-2.2-3.2"/>
				<polyline fill="none" stroke="#576F75" stroke-miterlimit="1" points="349.4,649.9 343.4,646.2 330.9,638.9 				"/>
				<path fill="none" stroke="#576F75" stroke-miterlimit="1" d="M309.9,641.4l-3.5-2.2c0,0,0.6-1.6,2.5-3.8s3.5-2.8,3.5-2.8
					l3.2,1.6l0,0"/>
				<path fill="none" stroke="#576F75" stroke-miterlimit="1" d="M323,634.2c0,0,0.9-1.9,1.9-3.2c0.3-0.3,0.3-0.3,0.3-0.3
					s0.3,0,0.6,0c0.9,0.3,6.3,3.5,7,4.1l0.3,0.3v0.3c-0.3,0.9-1.9,3.2-1.9,3.2L323,634.2z"/>
				<line fill="none" stroke="#576F75" stroke-miterlimit="1" x1="284.9" y1="697.2" x2="284.9" y2="705.9"/>
				<line fill="none" stroke="#576F75" stroke-miterlimit="1" x1="296.3" y1="703.2" x2="284.9" y2="697.2"/>
				<polyline fill="none" stroke="#576F75" stroke-miterlimit="1" points="288.7,691.1 288.7,691.2 284.9,697.2 284.9,697.2 				"/>
				<polyline fill="none" stroke="#576F75" stroke-miterlimit="1" points="314.5,648.8 299.5,673.2 293.5,683.2 288.7,691.1 				"/>
				<path fill="none" stroke="#576F75" stroke-miterlimit="1" d="M333.8,660.5c0,0,0-4.4,2.8-8.5c2.5-3.8,6.3-5.1,6.6-5.4l0,0"/>
				<polyline fill="none" stroke="#576F75" stroke-miterlimit="1" points="296.3,715.8 296.3,703.2 300.1,697.2 325.2,655.2 				"/>
				<polyline fill="none" stroke="#576F75" stroke-miterlimit="1" points="288.7,691.1 288.7,691.1 300.1,697.2 300.1,697.2 				"/>
				<path fill="none" stroke="#576F75" stroke-miterlimit="1" d="M288.7,691.2c0,0-2.2-7.3,4.7-11.4"/>
				<path fill="none" stroke="#576F75" stroke-miterlimit="1" d="M293.5,683.1c0,0,0-1.3,0.3-3.5c0-1.3,0-2.8,0.3-4.7
					c0-3.2,0.9-6.3,1.3-7.3c0.3-0.9,1.3-3.2,2.8-6c2.2-3.8,5.4-8.5,7.9-11.7l2.2,1.6c0,0-1.6,1.3-4.7,7.9c-0.6,1.3-1.6,3.5-2.2,5.7
					c-0.9,3.8-1.6,5.7-1.6,7.9"/>
				<path fill="none" stroke="#576F75" stroke-miterlimit="1" d="M291.2,773.2L291.2,773.2c0.6,0.9,4.4,6.6,7.9,13.3
					c3.8,6.6,7,13.9,8.5,17.2c4.1,9.2,9.5,16.6,13.9,20.4c2.8,2.8,5.1,4.4,11.4,7.6c7.6,3.8,22.6,7.3,44.5,4.4l0,0"/>
				<line fill="none" stroke="#576F75" stroke-miterlimit="1" x1="377.3" y1="836.5" x2="405.6" y2="944.8"/>
				<path fill="none" stroke="#576F75" stroke-miterlimit="1" d="M344.6,664.7c0,0,67,256.9,67.6,259.2c0,0,3.2,12.7,7.6,17.5
					c3.2,3.5,10.1,3.5,12,3.8c-1.3,0-17.8,0-26.7,0c-3.5,0-5.7,0-5.7,0"/>
				<path fill="none" stroke="#576F75" stroke-miterlimit="1" d="M346.5,655.7c-0.3-0.6-1.6-0.3-2.2,1.3c-1.3,2.2,0.3,1.9,0.3,1.9"
					/>
				<polygon fill="none" stroke="#576F75" stroke-miterlimit="1" points="193.8,841 194.5,847.6 195.1,840.2 				"/>
			</g>
		</g>
	</g>
</g>
<g id="Type">
</g>
</svg>
