<?xml version="1.0" encoding="utf-8"?>
<!-- Generator: Adobe Illustrator 18.0.0, SVG Export Plug-In . SVG Version: 6.00 Build 0)  -->
<!DOCTYPE svg PUBLIC "-//W3C//DTD SVG 1.1//EN" "http://www.w3.org/Graphics/SVG/1.1/DTD/svg11.dtd">
<svg version="1.1" id="Layer_1" xmlns="http://www.w3.org/2000/svg" xmlns:xlink="http://www.w3.org/1999/xlink" x="0px" y="0px"
	 viewBox="0 0 1440 720" enable-background="new 0 0 1440 720" xml:space="preserve">
<g>
	<path fill="#576F90" d="M1162,136.5c0,22.3-13.5,40.5-30,40.5H307.9c-16.5-0.2-30-18.2-30-40.5V43c0-22.3,13.5-40.5,30-40.5h824.1
		c16.5,0,30,18.2,30,40.5L1162,136.5L1162,136.5z"/>
	<path fill="#576F90" d="M1162,406.9c0,22.3-13.5,40.5-30,40.5H307.9c-16.5,0-30-18.2-30-40.5v-93.6c0-22.3,13.5-40.5,30-40.5h824.1
		c16.5,0,30,18.2,30,40.5L1162,406.9L1162,406.9z"/>
	<path fill="#576F90" d="M1162,677.3c0,22.3-13.5,40.5-30,40.5H307.9c-16.5,0-30-18.2-30-40.5v-93.6c0-22.3,13.5-40.5,30-40.5h824.1
		c16.5,0,30,18.2,30,40.5L1162,677.3L1162,677.3z"/>
</g>
</svg>
