<?xml version="1.0" encoding="utf-8"?>
<!-- Generator: Adobe Illustrator 18.0.0, SVG Export Plug-In . SVG Version: 6.00 Build 0)  -->
<!DOCTYPE svg PUBLIC "-//W3C//DTD SVG 1.1//EN" "http://www.w3.org/Graphics/SVG/1.1/DTD/svg11.dtd">
<svg version="1.1" id="Layer_1" xmlns="http://www.w3.org/2000/svg" xmlns:xlink="http://www.w3.org/1999/xlink" x="0px" y="0px"
	 viewBox="0 0 1440 720" enable-background="new 0 0 1440 720" xml:space="preserve">
<g>
	<path fill="#576F90" d="M999.5,705.8c-15.7,15.7-38.1,19.2-49.8,7.4L366.9,130.4c-11.8-11.8-8.3-33.9,7.4-49.8l66.3-66.1
		c15.7-15.7,38.1-19.2,49.8-7.4l582.7,582.7c11.8,11.8,8.3,33.9-7.4,49.8L999.5,705.8L999.5,705.8z"/>
	<path fill="#576F90" d="M1065.5,80.5c15.7,15.7,19.2,38.1,7.4,49.8L490.4,713.1c-11.8,11.8-33.9,8.3-49.8-7.4l-66.1-66.1
		c-15.7-15.7-19.2-38.1-7.4-49.8l582.5-583c11.8-11.8,33.9-8.3,49.8,7.4L1065.5,80.5L1065.5,80.5z"/>
</g>
</svg>
